<svg preserveAspectRatio="none" overflow="visible" style="display: block;" width="12.448" height="12" viewBox="0 0 12.448 12" fill="none" xmlns="http://www.w3.org/2000/svg">
<g id="Icon/alert">
<path id="Vector" d="M6.22401 4.5V6.5M6.22401 8.5H6.22901M5.36901 1.93L1.13401 9C1.04669 9.15121 1.00049 9.32265 1 9.49726C0.999515 9.67187 1.04475 9.84356 1.13122 9.99526C1.21769 10.147 1.34237 10.2734 1.49286 10.3619C1.64335 10.4505 1.81441 10.4981 1.98901 10.5H10.459C10.6336 10.4981 10.8047 10.4505 10.9552 10.3619C11.1056 10.2734 11.2303 10.147 11.3168 9.99526C11.4033 9.84356 11.4485 9.67187 11.448 9.49726C11.4475 9.32265 11.4013 9.15121 11.314 9L7.07901 1.93C6.98987 1.78305 6.86437 1.66156 6.71461 1.57724C6.56484 1.49292 6.39588 1.44863 6.22401 1.44863C6.05214 1.44863 5.88317 1.49292 5.73341 1.57724C5.58365 1.66156 5.45814 1.78305 5.36901 1.93Z" stroke="#7A5600" stroke-width="2" stroke-linecap="round" stroke-linejoin="round"/>
</g>
</svg>
